<svg width="200" height="200" xmlns="http://www.w3.org/2000/svg">
 <g>
  <title>Logo</title>
  <path stroke-dasharray="2,2" stroke-width="0" stroke="#000" id="svg_1" d="m48.90135,94.58923l0,0c0,-29.82337 23.72891,-54 53,-54l0,0c14.05647,0 27.53723,5.68927 37.47665,15.81623c9.93943,10.12697 15.52335,23.86207 15.52335,38.18377l0,0c0,29.82337 -23.72891,54 -53,54l0,0c-29.27109,0 -53,-24.17663 -53,-54zm26.5,0l0,0c0,14.91168 11.86446,27 26.5,27c14.63555,0 26.5,-12.08832 26.5,-27c0,-14.91168 -11.86446,-27 -26.5,-27l0,0c-14.63554,0 -26.5,12.08832 -26.5,27z" fill="#3c9cfc"/>
 </g>
</svg>
